<svg width="22" height="21" viewBox="0 0 22 21" fill="none" xmlns="http://www.w3.org/2000/svg">
<path d="M1.25 11.2593C1.25 12.8604 2.37341 14.254 3.95746 14.487C5.04357 14.6467 6.14151 14.77 7.25 14.8556V19.5L11.326 15.424C11.6017 15.1483 11.9738 14.9919 12.3635 14.981C14.2869 14.9274 16.1821 14.7606 18.0425 14.4871C19.6266 14.2542 20.75 12.8606 20.75 11.2595V5.24056C20.75 3.63946 19.6266 2.24583 18.0425 2.01293C15.744 1.67501 13.3926 1.5 11.0003 1.5C8.60776 1.5 6.25612 1.67504 3.95747 2.01302C2.37342 2.24593 1.25 3.63956 1.25 5.24064V11.2593Z" stroke="#808080" stroke-width="1.5" stroke-linecap="round" stroke-linejoin="round"/>
</svg>
