<svg width="30" height="28" viewBox="0 0 30 28" fill="none" xmlns="http://www.w3.org/2000/svg">
    <path fill-rule="evenodd" clip-rule="evenodd"
        d="M29.6667 14C29.6667 21.7338 23.1394 28 15.0833 28C7.02726 28 0.5 21.7338 0.5 14C0.5 6.26617 7.02726 0 15.0833 0C23.1394 0 29.6667 6.26617 29.6667 14Z"
        fill="#209D3D" />
    <path fill-rule="evenodd" clip-rule="evenodd"
        d="M18.15 27.6723C18.4295 27.6175 18.7102 27.558 18.9849 27.4903C19.4552 27.3666 19.9158 27.2161 20.3667 27.0481C20.8224 26.879 21.2648 26.6876 21.6962 26.4788C22.1325 26.2641 22.5554 26.032 22.9637 25.7811C23.372 25.5303 23.7658 25.2573 24.1498 24.9656C24.5302 24.6786 24.896 24.3683 25.2424 24.0405C25.5936 23.7161 25.9253 23.3743 26.2389 23.0196C26.5524 22.6638 26.8465 22.2905 27.1175 21.9031C27.3922 21.5205 27.6486 21.1238 27.8819 20.7131C28.1141 20.3036 28.3279 19.8836 28.5175 19.4555C28.7083 19.0226 28.8736 18.5851 29.0158 18.1383C29.1398 17.7463 29.2443 17.3543 29.3342 16.953L20.6656 8.6358C19.1891 7.21013 17.1814 6.41213 15.0875 6.41213C12.9887 6.40746 10.9774 7.21013 9.49479 8.6358C8.0158 10.058 7.17969 11.9853 7.17969 14.0001C7.17969 16.0103 8.0158 17.9423 9.49479 19.3645L18.15 27.6676V27.6723Z"
        fill="#209D3D" />
    <path fill-rule="evenodd" clip-rule="evenodd"
        d="M18.6817 11.6668C18.5674 11.6761 18.4581 11.7169 18.3633 11.7858L13.9251 14.9848L11.8688 13.0061C11.4228 12.5651 10.5454 13.4028 11.0096 13.8309L13.4402 16.1643C13.6541 16.3649 13.9871 16.3883 14.2338 16.2191L19.0949 12.7191C19.5032 12.4368 19.2516 11.6761 18.7437 11.6668H18.6817ZM15.0832 6.41211C17.1055 6.41211 19.1228 7.15528 20.6711 8.63578C22.1513 10.0579 22.9874 11.9853 22.9874 14.0001C22.9874 16.0149 22.1513 17.9423 20.6711 19.3644C19.1897 20.7854 17.182 21.5881 15.0832 21.5881C12.9845 21.5881 10.9768 20.7854 9.4954 19.3644C8.01519 17.9423 7.17908 16.0149 7.17908 14.0001C7.17908 11.9853 8.01519 10.0579 9.4954 8.63578C10.9768 7.21011 12.9893 6.41211 15.0832 6.41211Z"
        fill="white" />
</svg>
