<svg width="20" height="20" viewBox="0 0 20 20" fill="none" xmlns="http://www.w3.org/2000/svg">
    <path
        d="M10 0.25C4.624 0.25 0.25 4.624 0.25 10C0.25 15.376 4.624 19.75 10 19.75C15.376 19.75 19.75 15.376 19.75 10C19.75 4.624 15.376 0.25 10 0.25ZM10 1.75C14.5487 1.75 18.25 5.45125 18.25 10C18.25 14.5487 14.5487 18.25 10 18.25C5.45125 18.25 1.75 14.5487 1.75 10C1.75 5.45125 5.45125 1.75 10 1.75ZM7 5.70068L6.34375 7.17432L4.75 7.34863L5.94238 8.41943L5.60693 10L7 9.19727L8.39307 10L8.05762 8.41943L9.25 7.34863L7.65625 7.17432L7 5.70068ZM13 5.70068L12.3438 7.17432L10.75 7.34863L11.9424 8.41943L11.6069 10L13 9.19727L14.3931 10L14.0576 8.41943L15.25 7.34863L13.6562 7.17432L13 5.70068ZM6.10791 12.25L4.81738 13C4.9477 13.2241 5.09125 13.4385 5.24805 13.6431C5.40484 13.8476 5.57541 14.042 5.75635 14.2246C5.93728 14.4072 6.1293 14.579 6.33203 14.7373C6.7375 15.0539 7.18352 15.3194 7.66211 15.5239C7.90141 15.6262 8.14926 15.7126 8.40332 15.7832C8.91145 15.9244 9.44687 16 10 16C11.6594 16 13.158 15.3204 14.2437 14.2246C14.4246 14.042 14.5952 13.8476 14.752 13.6431C14.9087 13.4385 15.0523 13.2241 15.1826 13L13.8921 12.25C13.2096 13.4247 12.022 14.2669 10.6152 14.459C10.4143 14.4864 10.2091 14.5 10 14.5C9.79094 14.5 9.58573 14.4864 9.38477 14.459C9.1838 14.4315 8.98709 14.3904 8.7959 14.3374C8.41352 14.2313 8.05252 14.0763 7.71924 13.8789C7.5526 13.7802 7.39209 13.671 7.24023 13.5522C6.93651 13.3148 6.66476 13.0385 6.43018 12.7319C6.31289 12.5786 6.20541 12.4178 6.10791 12.25Z"
        fill="#999999" />
</svg>
