<svg width="48" height="48" viewBox="0 0 48 48" fill="none" xmlns="http://www.w3.org/2000/svg">
    <g filter="url(#filter0_d)">
        <circle cx="24" cy="24" r="16" fill="#465697"/>
    </g>
    <g clip-path="url(#clip0)">
        <path d="M29.3917 21.4406L23.3358 17C22.8628 16.6536 22.3031 16.445 21.7188 16.3973C21.1345 16.3495 20.5484 16.4645 20.0254 16.7295C19.5025 16.9944 19.0631 17.399 18.756 17.8984C18.4489 18.3978 18.2861 18.9725 18.2856 19.5587V28.4444C18.2847 29.0313 18.4467 29.6068 18.7535 30.1071C19.0603 30.6073 19.4999 31.0126 20.0234 31.2778C20.5468 31.5431 21.1336 31.6578 21.7185 31.6093C22.3033 31.5608 22.8632 31.351 23.3358 31.0032L29.3917 26.5625C29.7935 26.2676 30.1203 25.8823 30.3455 25.4377C30.5707 24.993 30.6881 24.5016 30.6881 24.0032C30.6881 23.5047 30.5707 23.0133 30.3455 22.5687C30.1203 22.1241 29.7935 21.7387 29.3917 21.4438V21.4406Z" fill="white"/>
    </g>
    <defs>
        <filter id="filter0_d" x="0" y="0" width="48" height="48" filterUnits="userSpaceOnUse" color-interpolation-filters="sRGB">
            <feFlood flood-opacity="0" result="BackgroundImageFix"/>
            <feColorMatrix in="SourceAlpha" type="matrix"
                values="0 0 0 0 0 0 0 0 0 0 0 0 0 0 0 0 0 0 127 0"
                result="hardAlpha"/>
            <feOffset dy="4"/>
            <feGaussianBlur stdDeviation="4"/>
            <feComposite in2="hardAlpha" operator="out"/>
            <feColorMatrix type="matrix"
                values="0 0 0 0 0.0745 0 0 0 0 0.1725 0 0 0 0 0.2902 0 0 0 0.06 0"/>
            <feBlend mode="normal" in2="BackgroundImageFix" result="effect1_dropShadow"/>
            <feBlend mode="normal" in="SourceGraphic" in2="effect1_dropShadow" result="shape"/>
        </filter>
        <clipPath id="clip0">
            <rect width="24" height="24" fill="white" transform="translate(12 12)"/>
        </clipPath>
    </defs>
</svg>
