<svg width="15" height="16" viewBox="0 0 15 16" fill="none" xmlns="http://www.w3.org/2000/svg">
<g clip-path="url(#clip0_690_1980)">
<path d="M6.6204 6.82674C4.73824 6.82674 3.20703 5.29552 3.20703 3.41337C3.20703 1.53122 4.73824 0 6.6204 0C8.50255 0 10.0338 1.53122 10.0338 3.41337C10.0338 5.29552 8.50255 6.82674 6.6204 6.82674Z" fill="#465697"/>
<g clip-path="url(#clip1_690_1980)">
<g clip-path="url(#clip2_690_1980)">
<path d="M7.94492 9.32788C7.94492 8.57222 8.15708 7.86522 8.52484 7.26317C7.9506 7.5484 7.30427 7.70947 6.62077 7.70947C5.73424 7.70947 4.90961 7.43953 4.22467 6.97754C3.37774 7.30583 2.60079 7.81003 1.93921 8.47159C0.68868 9.72211 0 11.3847 0 13.1532V14.6245C0 14.8682 0.19762 15.0659 0.44138 15.0659H12.8001C13.0439 15.0659 13.2415 14.8683 13.2415 14.6245V13.1532C13.2415 13.1267 13.2408 13.1 13.2404 13.0735C12.8264 13.2202 12.3811 13.3003 11.9174 13.3003C9.72695 13.3003 7.9449 11.5183 7.9449 9.32788H7.94492Z" fill="#465697"/>
</g>
<path fill-rule="evenodd" clip-rule="evenodd" d="M11.9175 6.23828C10.2139 6.23828 8.82788 7.62431 8.82788 9.32797C8.82788 11.0316 10.2139 12.4177 11.9175 12.4177C13.6212 12.4177 15.0073 11.0316 15.0073 9.32797C15.0073 7.62431 13.6212 6.23828 11.9175 6.23828ZM12.8003 9.76936H12.3589V10.2107C12.3589 10.4545 12.1613 10.6521 11.9175 10.6521C11.6738 10.6521 11.4762 10.4545 11.4762 10.2107V9.76936H11.0348C10.791 9.76936 10.5934 9.57173 10.5934 9.32797C10.5934 9.08421 10.791 8.88659 11.0348 8.88659H11.4762V8.44521C11.4762 8.20142 11.6738 8.0038 11.9175 8.0038C12.1613 8.0038 12.3589 8.20142 12.3589 8.44521V8.88659H12.8003C13.0441 8.88659 13.2417 9.08421 13.2417 9.32797C13.2417 9.57173 13.0441 9.76936 12.8003 9.76936Z" fill="#465697"/>
</g>
</g>
<defs>
<clipPath id="clip0_690_1980">
<rect width="15.0074" height="15.0653" fill="white"/>
</clipPath>
<clipPath id="clip1_690_1980">
<rect width="15.0074" height="8.82732" fill="white" transform="translate(0 6.23828)"/>
</clipPath>
<clipPath id="clip2_690_1980">
<rect width="13.2415" height="8.08832" fill="white" transform="translate(0 6.97754)"/>
</clipPath>
</defs>
</svg>
