<svg width="24" height="24" viewBox="0 0 24 24" fill="none" xmlns="http://www.w3.org/2000/svg">
<path d="M24.0001 12.2725C24.0001 11.4543 23.9319 10.6392 23.7892 9.83252H12.2417V14.4531H18.8548C18.5814 15.9439 17.699 17.2626 16.4099 18.0983V21.1002H20.3579C22.6692 19.0155 24.0001 15.9263 24.0001 12.2725Z" fill="#4285F4"/>
<path d="M12.2417 24C15.5454 24 18.3291 22.9373 20.3579 21.103L16.4099 18.1012C15.3107 18.832 13.8966 19.2484 12.2417 19.2484C9.04825 19.2484 6.33881 17.1377 5.36743 14.2959H1.30347V17.3879C3.38293 21.4438 7.61337 24 12.2417 24Z" fill="#34A853"/>
<path d="M5.37038 14.2957C4.85653 12.8079 4.85653 11.192 5.37038 9.70145V6.6123H1.30354C-0.434514 10.0041 -0.434514 13.9987 1.30354 17.3906L5.37038 14.2957Z" fill="#FBBC04"/>
<path d="M12.2417 4.75213C13.9886 4.72592 15.6731 5.36948 16.9386 6.55155L20.4352 3.12752C18.2191 1.08959 15.284 -0.0313878 12.2417 0.00066907C7.61337 0.00066907 3.38005 2.55977 1.30347 6.61264L5.3703 9.70461C6.33881 6.86002 9.04826 4.75213 12.2417 4.75213Z" fill="#EA4335"/>
</svg>
