<svg width="25" height="24" viewBox="0 0 25 24" fill="none" xmlns="http://www.w3.org/2000/svg">
    <path
        d="M20.625 6.75H4.125C3.71079 6.75 3.375 7.08579 3.375 7.5V19.5C3.375 19.9142 3.71079 20.25 4.125 20.25H20.625C21.0392 20.25 21.375 19.9142 21.375 19.5V7.5C21.375 7.08579 21.0392 6.75 20.625 6.75Z"
        stroke="#808080" stroke-width="1.4" stroke-linecap="round" stroke-linejoin="round" />
    <path
        d="M16.125 6.75V5.25C16.125 4.85218 15.967 4.47064 15.6857 4.18934C15.4044 3.90804 15.0228 3.75 14.625 3.75H10.125C9.72718 3.75 9.34564 3.90804 9.06434 4.18934C8.78304 4.47064 8.625 4.85218 8.625 5.25V6.75"
        stroke="#808080" stroke-width="1.4" stroke-linecap="round" stroke-linejoin="round" />
    <path d="M3.375 15H21.375" stroke="#808080" stroke-width="1.4" stroke-linecap="round"
        stroke-linejoin="round" />
</svg>
