<svg width="20" height="18" viewBox="0 0 20 18" fill="none" xmlns="http://www.w3.org/2000/svg">
    <path fill-rule="evenodd" clip-rule="evenodd"
        d="M9.03033 17.0303C8.73744 17.3232 8.26256 17.3232 7.96967 17.0303L0.469669 9.53033C0.329018 9.38968 0.25 9.19891 0.25 9C0.25 8.80109 0.329018 8.61032 0.469669 8.46967L7.96967 0.969669C8.26256 0.676777 8.73744 0.676777 9.03033 0.969669C9.32322 1.26256 9.32322 1.73744 9.03033 2.03033L2.81066 8.25L19 8.25C19.4142 8.25 19.75 8.58579 19.75 9C19.75 9.41421 19.4142 9.75 19 9.75L2.81066 9.75L9.03033 15.9697C9.32322 16.2626 9.32322 16.7374 9.03033 17.0303Z"
        fill="black" />
</svg>
