<svg width="14" height="18" viewBox="0 0 14 18" fill="none" xmlns="http://www.w3.org/2000/svg">
    <path
        d="M4.75 0C3.92969 0 3.25 0.679688 3.25 1.5V10.5C3.25 11.3203 3.92969 12 4.75 12H9.25C10.0703 12 10.75 11.3203 10.75 10.5V1.5C10.75 0.679688 10.0703 0 9.25 0H4.75ZM4.75 1.5H9.25V10.5H4.75V1.5ZM0.25 7.5V10.5C0.25 12.9756 2.27441 15 4.75 15H6.25V16.5H3.25V18H10.75V16.5H7.75V15H9.25C11.7256 15 13.75 12.9756 13.75 10.5V7.5H12.25V10.5C12.25 12.1641 10.9141 13.5 9.25 13.5H4.75C3.08594 13.5 1.75 12.1641 1.75 10.5V7.5H0.25Z"
        fill="#666666" />
</svg>
