<svg width="48" height="48" viewBox="0 0 48 48" fill="none" xmlns="http://www.w3.org/2000/svg">
    <path
        d="M0 24C0 10.7452 10.7452 0 24 0C37.2548 0 48 10.7452 48 24C48 37.2548 37.2548 48 24 48C10.7452 48 0 37.2548 0 24Z"
        fill="white" />
    <g clip-path="url(#clip0_861_2378)">
        <path
            d="M32.492 19.9697L22.954 12.9757C22.209 12.4302 21.3276 12.1016 20.4073 12.0264C19.487 11.9512 18.5639 12.1323 17.7402 12.5496C16.9165 12.9669 16.2245 13.6041 15.7408 14.3907C15.2572 15.1772 15.0008 16.0823 15 17.0057V31.0007C14.9986 31.9249 15.2537 32.8315 15.7369 33.6193C16.2201 34.4072 16.9124 35.0455 17.7369 35.4633C18.5614 35.881 19.4856 36.0617 20.4067 35.9854C21.3278 35.909 22.2096 35.5785 22.954 35.0307L32.492 28.0367C33.1249 27.5722 33.6395 26.9653 33.9942 26.265C34.349 25.5647 34.5338 24.7907 34.5338 24.0057C34.5338 23.2207 34.349 22.4467 33.9942 21.7464C33.6395 21.0461 33.1249 20.4391 32.492 19.9747V19.9697Z"
            fill="#465697" />
    </g>
    <defs>
        <clipPath id="clip0_861_2378">
            <rect width="24" height="24" fill="white" transform="translate(12 12)" />
        </clipPath>
    </defs>
</svg>
