<svg width="14" height="16" viewBox="0 0 14 16" fill="none" xmlns="http://www.w3.org/2000/svg">
<path d="M12.5 4.25C12.5 5.76878 10.0376 7 7 7C3.96243 7 1.5 5.76878 1.5 4.25M12.5 4.25C12.5 2.73122 10.0376 1.5 7 1.5C3.96243 1.5 1.5 2.73122 1.5 4.25M12.5 4.25V11.75C12.5 13.2688 10.0376 14.5 7 14.5C3.96243 14.5 1.5 13.2688 1.5 11.75V4.25M12.5 4.25V6.75M1.5 4.25V6.75M12.5 6.75V9.25C12.5 10.7688 10.0376 12 7 12C3.96243 12 1.5 10.7688 1.5 9.25V6.75M12.5 6.75C12.5 8.26878 10.0376 9.5 7 9.5C3.96243 9.5 1.5 8.26878 1.5 6.75" stroke="#7D8AC3" stroke-width="1.5" stroke-linecap="round" stroke-linejoin="round"/>
</svg>
