<svg width="15" height="16" viewBox="0 0 15 16" fill="none" xmlns="http://www.w3.org/2000/svg">
<g clip-path="url(#clip0_2364_3265)">
<path d="M6.6204 6.82674C4.73824 6.82674 3.20703 5.29552 3.20703 3.41337C3.20703 1.53122 4.73824 0 6.6204 0C8.50255 0 10.0338 1.53122 10.0338 3.41337C10.0338 5.29552 8.50255 6.82674 6.6204 6.82674Z" fill="#465697"/>
<g clip-path="url(#clip1_2364_3265)">
<g clip-path="url(#clip2_2364_3265)">
<path d="M7.94492 9.3269C7.94492 8.57124 8.15708 7.86424 8.52484 7.26219C7.9506 7.54742 7.30427 7.70849 6.62077 7.70849C5.73424 7.70849 4.90961 7.43855 4.22467 6.97656C3.37774 7.30485 2.60079 7.80905 1.93921 8.47061C0.68868 9.72113 0 11.3837 0 13.1522V14.6235C0 14.8673 0.19762 15.0649 0.44138 15.0649H12.8001C13.0439 15.0649 13.2415 14.8673 13.2415 14.6235V13.1522C13.2415 13.1257 13.2408 13.0991 13.2404 13.0725C12.8264 13.2192 12.3811 13.2994 11.9174 13.2994C9.72695 13.2994 7.9449 11.5173 7.9449 9.3269H7.94492Z" fill="#465697"/>
</g>
<path fill-rule="evenodd" clip-rule="evenodd" d="M11.9177 6.23779C10.214 6.23779 8.828 7.62382 8.828 9.32748C8.828 11.0311 10.214 12.4172 11.9177 12.4172C13.6213 12.4172 15.0074 11.0311 15.0074 9.32748C15.0074 7.62382 13.6213 6.23779 11.9177 6.23779ZM9.75012 8.99951C9.75012 8.86144 9.86205 8.74951 10.0001 8.74951H14.0001C14.1382 8.74951 14.2501 8.86144 14.2501 8.99951C14.2501 9.13758 14.1382 9.24951 14.0001 9.24951H10.0001C9.86205 9.24951 9.75012 9.13758 9.75012 8.99951Z" fill="#465697"/>
</g>
</g>
<defs>
<clipPath id="clip0_2364_3265">
<rect width="15.0074" height="15.0653" fill="white"/>
</clipPath>
<clipPath id="clip1_2364_3265">
<rect width="15.0074" height="8.82732" fill="white" transform="translate(0 6.23779)"/>
</clipPath>
<clipPath id="clip2_2364_3265">
<rect width="13.2415" height="8.08832" fill="white" transform="translate(0 6.97656)"/>
</clipPath>
</defs>
</svg>
