<svg width="24" height="22" viewBox="0 0 24 22" fill="none" xmlns="http://www.w3.org/2000/svg">
<path d="M2.78906 0.710938L1.71094 1.78906L6.375 6.42969L14.6953 14.75L16.125 16.2031L21.2109 21.2891L22.2891 20.2109L17.625 15.5469C20.8008 13.9736 22.9307 11.6387 23.0625 11.4922L23.5078 11L23.0625 10.5078C22.8604 10.2822 18.0645 5 12 5C10.5322 5 9.14648 5.32227 7.875 5.79688L2.78906 0.710938ZM12 6.5C13.6143 6.5 15.1406 6.9541 16.5 7.57812C16.9834 8.38672 17.25 9.30078 17.25 10.25C17.25 11.6123 16.7227 12.8574 15.8672 13.7891L13.7344 11.6562C14.0479 11.2725 14.25 10.7861 14.25 10.25C14.25 9.00781 13.2422 8 12 8C11.4639 8 10.9775 8.20215 10.5938 8.51562L9.07031 6.99219C10.002 6.70508 10.9775 6.5 12 6.5ZM5.01562 7.17969C2.61035 8.65918 1.04883 10.3818 0.9375 10.5078L0.492188 11L0.9375 11.4922C1.13086 11.709 5.57227 16.5693 11.2969 16.9531C11.5283 16.9766 11.7627 17 12 17C12.2373 17 12.4717 16.9766 12.7031 16.9531C13.3213 16.9121 13.9248 16.8301 14.5078 16.6953L13.1719 15.3594C12.791 15.4473 12.4043 15.5 12 15.5C9.10547 15.5 6.75 13.1445 6.75 10.25C6.75 9.85156 6.80273 9.46191 6.89062 9.07812L5.01562 7.17969ZM5.4375 8.70312C5.31738 9.20996 5.25 9.72559 5.25 10.25C5.25 11.5537 5.61621 12.7549 6.25781 13.7891C4.54102 12.8047 3.22852 11.6504 2.55469 11C3.11426 10.458 4.12207 9.55859 5.4375 8.70312ZM18.5625 8.70312C19.8779 9.55859 20.8828 10.458 21.4453 11C20.7715 11.6504 19.4385 12.8281 17.7188 13.8125C18.3633 12.7783 18.75 11.5537 18.75 10.25C18.75 9.72559 18.6826 9.20703 18.5625 8.70312Z" fill="#B3B3B3"/>
</svg>
